# xmcd CD database file generated by freedbAccess_ocx
#
# Track frame offsets:
#       182
#       12452
#       28727
#       40955
#       50442
#       60917
#       72930
#       83787
#       96227
#       107260
#       120472
#       130867
#       146677
#       164922
#       180025
#       192600
#       204780
#       217350
#       228977
#       246290
#       265882
#
# Disc length: 3703 seconds
#
# Revision: 0
# Processed by: cddbd v1.4PL0 Copyright (c) Steve Scherf et al.
# Submitted via: CDnGo 1.95
#
DISCID=2c0e7515
DTITLE=Various Artist - The Complete No 1's Of Country Disc 2
DYEAR=1997
DGENRE=Country
TTITLE0=Tammy Wynette - Stand By Your Man
TTITLE1=Billie Jo Spears - Blanket On The Ground
TTITLE2=Dolly Parton - The Bargain Store
TTITLE3=Merle Haggard - The Legend Of Bonnie and Clyde
TTITLE4=Jerry Read - When You're Hot, You're Hot
TTITLE5=Lynn Anderson - You're My Man
TTITLE6=The Kendalls - Heavens Just A Sin Away
TTITLE7=Glen Campbell - I Wanna Live
TTITLE8=Don Williams - It Must Be Love
TTITLE9=Loretta Lynn - Woman Of The World (Leave My World Alone)
TTITLE10=George Jones - Walk Through This World With Me
TTITLE11=Crystal Gayle - I'll Get Over You
TTITLE12=Johnny Cash - One Piece At A Time
TTITLE13=B. J. Thomas - Another Somebody Done Somebody Wrong Song
TTITLE14=Jim Reeves - Blue Side Of Lonesome
TTITLE15=Eddy ARnold - I Want To Go With You
TTITLE16=Charlie Rich - A Very Special Love Song
TTITLE17=Sammi Smith - Help Me Make It Through The Night
TTITLE18=Ray Price - You're The Best Thing That Ever Happened To Me
TTITLE19=Willie Nelson - Georgia On My Mind
TTITLE20=Sonny James - Only The Lonely
EXTD=
EXTT0=
EXTT1=
EXTT2=
EXTT3=
EXTT4=
EXTT5=
EXTT6=
EXTT7=
EXTT8=
EXTT9=
EXTT10=
EXTT11=
EXTT12=
EXTT13=
EXTT14=
EXTT15=
EXTT16=
EXTT17=
EXTT18=
EXTT19=
EXTT20=
PLAYORDER=
